<?xml version="1.0" encoding="iso-8859-1"?>
<!-- Generator: Adobe Illustrator 19.0.0, SVG Export Plug-In . SVG Version: 6.00 Build 0)  -->
<svg version="1.1" id="Capa_1" xmlns="http://www.w3.org/2000/svg" xmlns:xlink="http://www.w3.org/1999/xlink" x="0px" y="0px"
	 viewBox="0 0 462 462" style="enable-background:new 0 0 462 462;" xml:space="preserve">
<path style="fill:#ED664C;" d="M422.5,99.8v251.8c0,16.6-13.4,30-30,30h-60h-173c-16.6,0-30-13.4-30-30V80.4V40.1
	c0-16.6,13.4-30,30-30h176l1,1l-1,1v71.4c0,9,7.3,16.3,16.3,16.3h67.7l1.5-1.5L422.5,99.8z"/>
<g>
	<path style="fill:#FDC75B;" d="M336.5,11.2l84.6,87.1l-1.5,1.5h-67.7c-9,0-16.3-7.3-16.3-16.3V12.1L336.5,11.2z"/>
	<path style="fill:#FDC75B;" d="M332.5,381.6v40.3c0,16.6-13.4,30-30,30h-233c-16.6,0-30-13.4-30-30V110.4c0-16.6,13.4-30,30-30h60
		v271.2c0,16.6,13.4,30,30,30H332.5z"/>
</g>
<path d="M342.7,3.1c-1.9-1.9-4.5-3.1-7.2-3.1h-176C137.4,0,119,18.1,119,40.1V70H69.5C47.4,70,29,88.3,29,110.4v311.5
	C29,444,47.4,462,69.5,462h233c22.1,0,40.5-18.1,40.5-40.1V392h49.5c22.1,0,40.5-18.3,40.5-40.4V99.8c0-2.6-1.3-5.1-3.1-7L342.7,3.1
	z M345,34.8L398.9,90h-47.1c-3.5,0-6.8-3-6.8-6.5V34.8z M323,421.9c0,11-9.5,20.1-20.5,20.1h-233c-11,0-20.5-9.1-20.5-20.1V110.4
	c0-11,9.5-20.4,20.5-20.4H119v261.6c0,22.1,18.4,40.4,40.5,40.4H323V421.9z M413,351.6c0,11-9.5,20.4-20.5,20.4h-233
	c-11,0-20.5-9.4-20.5-20.4V40.1c0-11,9.5-20.1,20.5-20.1H325v63.5c0,14.5,12.3,26.5,26.8,26.5H413V351.6z"/>
<path d="M169.7,321c0,5.5,4.5,10,10,10h187.6c5.5,0,10-4.5,10-10s-4.5-10-10-10H179.7C174.2,311,169.7,315.5,169.7,321z"/>
<path d="M179.7,287H292c5.5,0,10-4.5,10-10s-4.5-10-10-10H179.7c-5.5,0-10,4.5-10,10S174.2,287,179.7,287z"/>
<path d="M276,213.3c-9.7,0-17.5-7.9-17.5-17.5c0-5.5-4.5-10-10-10s-10,4.5-10,10c0,16.9,11.2,31.2,26.5,35.9v8.4c0,5.5,4.5,10,10,10
	s10-4.5,10-10v-7.8c16.4-4,28.5-18.8,28.5-36.4c0-20.7-16.8-37.5-37.5-37.5c-9.7,0-17.5-7.9-17.5-17.5c0-9.7,7.9-17.5,17.5-17.5
	s17.5,7.9,17.5,17.5c0,5.5,4.5,10,10,10s10-4.5,10-10c0-17.6-12.2-32.4-28.5-36.4V95c0-5.5-4.5-10-10-10s-10,4.5-10,10v9.8
	c-15.3,4.7-26.5,19-26.5,35.9c0,20.7,16.8,37.5,37.5,37.5c9.7,0,17.5,7.9,17.5,17.5C293.5,205.4,285.7,213.3,276,213.3z"/>
<g>
</g>
<g>
</g>
<g>
</g>
<g>
</g>
<g>
</g>
<g>
</g>
<g>
</g>
<g>
</g>
<g>
</g>
<g>
</g>
<g>
</g>
<g>
</g>
<g>
</g>
<g>
</g>
<g>
</g>
</svg>
